<?xml version="1.0" encoding="UTF-8" standalone="no"?>
<svg id="Riverbank_4" version="1.1"
   xmlns="http://www.w3.org/2000/svg"
   xmlns:svg="http://www.w3.org/2000/svg"
   xmlns:xlink="http://www.w3.org/1999/xlink"
   xmlns:sodipodi="http://sodipodi.sourceforge.net/DTD/sodipodi-0.dtd"
   xmlns:inkscape="http://www.inkscape.org/namespaces/inkscape"
   width="4.75in" height="8.25in" viewBox="-25 -250 950 1650">
  <sodipodi:namedview id="namedview-0"
     units="pc" inkscape:document-units="pc" inkscape:pagecheckerboard="1">
  </sodipodi:namedview>
  <style type="text/css">
    @import url('https://fonts.googleapis.com/css2?family=Merriweather:ital,wght@0,400;0,700;1,400&amp;display=swap');
    svg {background-color: floralwhite}
    .fill {fill: black; stroke: none}
    .stroke {fill: none; stroke: black}
    .shape {fill: none; stroke: black; stroke-width: 2}
    #logo {fill: seagreen}
    #title {font-size: 36pt; font-family: Merriweather}
    #byline, #notes {font-size: 18pt; font-family: Merriweather}
    .bold {font-weight: bold}
    .italic {font-style: italic}
    @media (prefers-color-scheme: dark) {
      svg {background-color: black}
      .shape {stroke: white}
      .fill {fill: white}
      .stroke {stroke: white}
      text {fill: white}
    }
  </style>
  <defs id="objects">
    <rect id="s" width="100" height="100" />
    <line id="r" x2="900" />
    <line id="c" y2="900" />
    <circle id="k" r="45" />
    <rect id="q" x="-40" y="-40" width="80" height="80" />
  </defs>
  <g id="shading" inkscape:groupmode="layer">
    <g id="shapes" class="shape">
      <use id="k-11" xlink:href="#k" transform="translate(50,50)" />
      <use id="k-12" xlink:href="#k" transform="translate(150,50)" />
      <use id="k-13" xlink:href="#k" transform="translate(250,50)" />
      <use id="k-14" xlink:href="#k" transform="translate(350,50)" />
      <use id="q-17" xlink:href="#q" transform="translate(650,50)" />
      <use id="q-21" xlink:href="#q" transform="translate(50,150)" />
      <use id="q-22" xlink:href="#q" transform="translate(150,150)" />
      <use id="k-23" xlink:href="#k" transform="translate(250,150)" />
      <use id="k-31" xlink:href="#k" transform="translate(50,250)" />
      <use id="q-33" xlink:href="#q" transform="translate(250,250)" />
      <use id="k-34" xlink:href="#k" transform="translate(350,250)" />
      <use id="k-36" xlink:href="#k" transform="translate(550,250)" />
      <use id="k-37" xlink:href="#k" transform="translate(650,250)" />
      <use id="q-42" xlink:href="#q" transform="translate(150,350)" />
      <use id="k-44" xlink:href="#k" transform="translate(350,350)" />
      <use id="k-47" xlink:href="#k" transform="translate(650,350)" />
      <use id="q-48" xlink:href="#q" transform="translate(750,350)" />
      <use id="q-49" xlink:href="#q" transform="translate(850,350)" />
      <use id="k-52" xlink:href="#k" transform="translate(150,450)" />
      <use id="k-54" xlink:href="#k" transform="translate(350,450)" />
      <use id="q-56" xlink:href="#q" transform="translate(550,450)" />
      <use id="k-61" xlink:href="#k" transform="translate(50,550)" />
      <use id="q-69" xlink:href="#q" transform="translate(850,550)" />
      <use id="k-76" xlink:href="#k" transform="translate(550,650)" />
      <use id="q-79" xlink:href="#q" transform="translate(850,650)" />
      <use id="k-85" xlink:href="#k" transform="translate(450,750)" />
      <use id="q-88" xlink:href="#q" transform="translate(750,750)" />
      <use id="k-93" xlink:href="#k" transform="translate(250,850)" />
      <use id="q-97" xlink:href="#q" transform="translate(650,850)" />
      <use id="k-99" xlink:href="#k" transform="translate(850,850)" />
    </g>
  </g>
  <g id="grid" inkscape:groupmode="layer">
    <text id="byline" class="italic" x="37.5" y="-200">Nordy &amp; Henry ‘Pi’ James present</text>
    <text id="title" x="350" y="-135"><tspan class="bold">Riverbank</tspan> · Episode 4</text>
    <path id="logo" class="fill" transform="translate(135,-100)"
       d="M 28.264255,66.953841 C 13.977468,64.850378 3.6724385,54.719426 0.6947112,39.850008 -0.22556485,35.254572 -0.22782853,34.421702 0.66586898,29.242897 2.0246309,21.369218 4.901425,15.608362 10.027208,10.496559 14.569986,5.966172 21.69505,2.0157569 27.508723,0.8041248 32.608347,-0.25869218 40.8464,0.41136383 47.413105,2.4230847 c 3.018668,0.9247725 6.616591,1.6196971 8.042071,1.5532955 L 58.034708,3.856218 v 8.244101 c 0,7.318193 -0.111865,8.222062 -0.996057,8.04786 -0.55917,-0.110167 -1.313088,-1.261131 -1.718839,-2.624054 C 53.634421,11.862876 50.330382,7.6570137 45.646901,5.211028 42.882095,3.7670891 41.88684,3.5958205 36.173931,3.5808865 30.172552,3.5652125 29.548531,3.683181 25.751593,5.5514326 18.800607,8.9716045 13.096779,16.677221 11.363441,24.989175 c -0.959309,4.600216 -0.827622,13.224399 0.266045,17.423299 2.277444,8.743763 8.03794,16.520358 14.392397,19.429547 6.085806,2.786195 16.057184,2.975453 21.026354,0.399088 l 2.185714,-1.133224 0.170854,-7.811838 c 0.108841,-4.976372 -0.08742,-8.435368 -0.540702,-9.529698 -0.904664,-2.184071 -3.436647,-3.492229 -7.588775,-3.920769 -2.187054,-0.225725 -3.269926,-0.610868 -3.269926,-1.163005 0,-0.672634 2.641514,-0.825517 14.263293,-0.825517 12.09954,0 14.263292,0.134418 14.263292,0.886066 0,0.510033 -1.045575,1.199335 -2.463742,1.624227 -1.355055,0.405991 -3.130379,1.530425 -3.945166,2.498747 -1.413977,1.680435 -1.481422,2.141902 -1.481422,10.136619 v 8.376033 l -2.883006,1.22837 c -4.9195,2.096066 -10.875134,3.713616 -16.072721,4.365343 -5.550476,0.695974 -6.579509,0.694299 -11.421687,-0.01865 z M 18.073699,59.150606 C 13.962039,54.974582 10.497902,48.771359 9.1980766,43.257056 7.997941,38.165667 7.9959628,27.612621 9.1942892,23.011924 10.379899,18.460023 13.2409,13.092027 16.405912,9.4810024 L 18.886536,6.6508066 16.141373,8.5318042 C 8.0399282,14.082941 2.8023973,24.16755 2.8023973,34.215339 c 0,11.038967 6.4989288,22.212572 15.7104347,27.010951 1.540823,0.802635 2.867998,1.47205 2.949275,1.487593 0.08128,0.01553 -1.443503,-1.587929 -3.388402,-3.563277 z m 38.140175,-7.825032 c 0.25844,-7.229469 0.475049,-8.678518 1.459703,-9.764954 l 1.156232,-1.275747 h -4.690238 -4.690237 l 1.257949,1.599237 c 1.144079,1.454471 1.257948,2.413303 1.257948,10.592381 v 8.993145 l 1.972586,-0.827428 1.972582,-0.827431 z M 55.606925,8.7921901 c 0,-1.4680383 -0.284448,-1.7937188 -1.755152,-2.0095737 L 52.096622,6.5250128 53.700039,8.534569 c 0.881873,1.1052561 1.671692,2.009565 1.755148,2.009574 0.08346,8e-6 0.151738,-0.7883685 0.151738,-1.7519529 z M 236.16135,67.004484 c -3.88042,-0.578311 -7.61921,-2.486633 -10.48341,-5.350851 -1.57652,-1.576535 -14.15804,-20.392805 -16.16749,-24.179267 -0.0231,-0.04357 -2.70503,-0.273904 -5.95979,-0.511859 l -5.91775,-0.432643 V 48.681522 60.83318 l 1.56009,1.227172 c 0.85805,0.674945 2.83822,1.412503 4.40038,1.639018 3.34035,0.484349 5.14057,1.301793 4.64231,2.107991 -0.20858,0.337503 -6.25452,0.576502 -14.58377,0.576502 -12.16066,0 -14.22747,-0.130581 -14.22747,-0.898867 0,-0.494377 0.68282,-1.040635 1.51737,-1.213908 0.83456,-0.173273 2.22371,-0.462711 3.08701,-0.6432 0.86331,-0.180484 2.22895,-0.987457 3.03475,-1.793267 l 1.4651,-1.465114 V 34.377981 c 0,-28.4846084 0.10109,-27.664397 -3.64839,-29.6033417 -0.96463,-0.4988311 -2.58681,-0.9069659 -3.60485,-0.9069659 -1.14946,0 -1.85099,-0.3106096 -1.85099,-0.8195413 0,-1.8144446 30.34266,-2.34888882 35.67017,-0.6282812 9.10715,2.9413062 14.9031,12.3962151 12.94973,21.1248631 -0.85639,3.826787 -3.65284,7.385092 -7.64048,9.722021 l -2.72919,1.599426 1.6149,2.557617 c 0.88819,1.406689 4.19212,6.791117 7.34206,11.965394 6.23839,10.247525 8.19174,12.658629 12.14827,14.99506 4.08531,2.412476 3.03556,3.4629 -2.61856,2.620252 z m -40.0114,-4.397393 c -0.8228,-1.174729 -0.94484,-5.055095 -0.94484,-30.044184 V 3.8676734 h -3.43228 -3.43229 l 1.15623,1.2771073 c 1.09489,1.2093422 1.16525,2.7095909 1.32625,28.2757953 0.1426,22.645508 0.0278,27.283818 -0.71217,28.767085 l -0.88218,1.768389 h 3.93306 3.93307 z m 35.62501,-0.623638 c -1.67892,-1.801704 -16.53606,-26.039786 -16.53858,-26.981191 -0.001,-0.507385 -0.53281,-0.425793 -1.74022,0.267171 l -1.73826,0.99763 4.84423,7.623224 c 8.71377,13.712606 10.22318,15.790851 12.78927,17.6091 3.02964,2.146704 4.14372,2.372953 2.38356,0.484066 z m -20.4857,-28.632017 c 5.43637,-2.287032 7.88598,-6.753105 7.8489,-14.309929 -0.0266,-5.419083 -1.36182,-8.479913 -5.0921,-11.6729233 -3.09722,-2.6511223 -5.95655,-3.5009103 -11.77972,-3.5009103 h -4.63343 V 18.940349 c 0,8.28997 0.20485,15.285 0.45521,15.544509 0.7683,0.796354 10.62576,-0.04998 13.20114,-1.133422 z m 11.36406,-5.12155 c 2.25345,-2.036852 3.73076,-6.660548 3.18107,-9.956194 -0.83411,-5.000949 -3.54537,-9.0452676 -7.8687,-11.7375384 l -1.82085,-1.1338975 1.90834,2.2154153 c 2.75716,3.2008476 3.56439,6.0571236 3.48586,12.3342656 -0.0646,5.160654 -0.23861,5.898251 -2.57788,10.92516 -0.31969,0.686977 1.2429,-0.433365 3.69216,-2.647211 z m 74.2374,38.675622 c -8.25598,-1.164231 -15.26553,-4.575357 -21.02771,-10.232897 -6.43867,-6.321748 -9.03795,-12.867651 -9.03795,-22.760747 0,-3.031058 0.40671,-7.072497 0.9038,-8.980971 C 271.56683,10.195837 284.92622,0.03596372 300.51071,1.4959441e-4 310.83009,-0.02356528 317.92797,2.7706796 324.77778,9.5534406 c 7.11552,7.0459024 10.53404,15.9471714 9.76844,25.4355424 -1.13744,14.096866 -10.7512,26.270386 -24.02087,30.416612 -5.70518,1.782651 -9.03336,2.148777 -13.63463,1.499913 z m 13.48925,-4.753807 c 6.28738,-2.728085 12.00821,-10.725881 13.83396,-19.340034 1.09289,-5.15647 1.10799,-14.659203 0.0297,-18.708972 C 322.11018,16.089797 316.80915,8.8637251 310.57531,5.4708166 306.9338,3.4888501 300.06851,2.4812852 295.76563,3.297316 c -14.71752,2.791145 -23.45148,22.393633 -17.9803,40.355009 2.99201,9.822527 10.0009,17.339255 18.1304,19.444055 4.24671,1.099514 10.72874,0.676163 14.46424,-0.944679 z m -8.95883,-1.266241 c 0,-0.687349 -0.27313,-1.08092 -0.60695,-0.874607 -0.40097,0.247809 -0.60694,-8.288725 -0.60694,-25.152739 0,-15.341803 0.22535,-25.5278613 0.56473,-25.5278613 0.31062,0 0.6831,-0.6145387 0.82777,-1.3656448 0.14468,-0.7511032 0.30023,11.1300071 0.34571,26.4024711 0.0454,15.27246 -0.0539,27.768112 -0.22084,27.768112 -0.16691,0 -0.30348,-0.562378 -0.30348,-1.249731 z M 282.4328,57.356343 c -3.10368,-3.318108 -5.86012,-8.379137 -7.49696,-13.76496 -1.50879,-4.964477 -1.49872,-16.721169 0.0187,-21.792663 1.29603,-4.33166 3.67401,-9.225432 5.39393,-11.100428 0.68777,-0.7497889 1.10449,-1.5092535 0.92604,-1.6877007 -0.62913,-0.6291406 -7.06889,6.9800697 -8.66051,10.2332557 -5.65068,11.549662 -4.08986,25.781441 3.78322,34.496073 1.87845,2.079259 7.73092,6.574411 8.55953,6.574411 0.13358,0 -1.00218,-1.331098 -2.52394,-2.957988 z m 104.48921,9.616059 c -11.10352,-1.711401 -19.82095,-7.827622 -24.39349,-17.114561 -2.76785,-5.621614 -3.58261,-9.204953 -3.55671,-15.642502 0.041,-10.189257 2.71302,-16.682372 9.76269,-23.723427 10.50543,-10.49254027824 23.94058,-12.9009958 40.39195,-7.2408546 2.06194,0.7094216 4.1443,1.0376192 5.21934,0.822612 l 1.78864,-0.3577334 v 8.269739 c 0,6.946242 -0.1457,8.269739 -0.91043,8.269739 -0.50073,0 -0.91043,-0.509561 -0.91043,-1.132359 0,-0.622798 -0.97636,-3.084056 -2.16974,-5.469464 -3.81314,-7.6221011 -9.88972,-10.8340046 -19.37698,-10.2421085 -6.34515,0.3958636 -10.96897,2.4987818 -15.23681,6.9297205 -11.85417,12.307275 -11.31974,35.57501 1.08608,47.286145 5.06808,4.784305 9.25413,6.389397 16.66334,6.389397 5.76132,0 9.08904,-0.741952 11.36803,-2.534619 1.56829,-1.233614 1.59658,-1.387064 1.59434,-8.647025 -0.003,-10.297372 -1.17712,-12.134672 -8.32395,-13.027415 -1.90756,-0.238285 -3.40955,-0.706371 -3.33774,-1.040198 0.0814,-0.378036 5.51033,-0.668325 14.39455,-0.769676 12.07533,-0.137756 14.26398,-0.02884 14.26398,0.709914 0,0.50631 -1.25436,1.289268 -2.98805,1.865108 -1.6434,0.545859 -3.35044,1.427884 -3.79342,1.960055 -0.55296,0.664352 -0.90049,3.744886 -1.10886,9.829727 l -0.30348,8.862145 -2.99233,1.428338 c -6.98488,3.334096 -20.03887,5.412358 -27.13052,4.319303 z M 112.64362,65.848075 C 103.5098,63.381807 94.02995,55.951545 90.542369,48.525231 87.268203,41.553357 86.625813,32.904771 88.740355,24.264445 91.324925,13.703521 100.65554,4.5424199 112.35662,1.0772334 c 4.40039,-1.30314136 13.11517,-1.43886096 17.90499,-0.27884504 13.25205,3.20943294 22.73554,13.83552464 24.92143,27.92405064 1.81107,11.672688 -4.3986,25.128766 -14.89614,32.279285 -8.27706,5.638017 -18.24154,7.384965 -27.64328,4.846351 z m 19.16564,-4.004592 C 140.35654,57.661659 146.06058,46.013325 146.0333,32.796304 145.98906,11.366798 127.57174,-3.0939979 111.01123,5.2979107 100.26737,10.742278 94.387491,27.312435 98.078424,41.743982 c 2.879196,11.257622 10.018086,19.251205 19.283046,21.5917 3.95135,0.998178 10.80434,0.290391 14.44779,-1.492199 z m -28.49823,-4.412179 c -6.06975,-6.126835 -9.203628,-15.834433 -8.670381,-26.857685 0.37272,-7.704867 1.884334,-12.89119 5.295567,-18.169073 2.280034,-3.5276874 2.338424,-3.7173948 0.767644,-2.4940508 -2.219522,1.7285868 -5.452279,5.7906308 -6.978381,8.7685118 -7.201253,14.051789 -3.984187,30.111601 7.804901,38.962648 4.62693,3.473816 5.34632,3.388839 1.78065,-0.210351 z m 45.68033,-9.810213 c 7.60735,-14.340855 3.51156,-31.41031 -9.62552,-40.1149523 l -2.12432,-1.4075771 2.21738,2.3745381 c 3.16222,3.3863473 5.7202,7.6920953 7.32115,12.3233753 1.20533,3.486868 1.38178,5.161292 1.35003,12.811912 -0.0326,7.855288 -0.21026,9.322496 -1.65366,13.656448 -0.88943,2.670595 -2.32242,5.948143 -3.18441,7.283439 -1.534,2.376277 -1.50923,2.364507 1.16663,-0.554171 1.50364,-1.640093 3.54336,-4.507947 4.53272,-6.373012 z M 472.89153,66.011117 C 460.29036,62.964836 450.16041,53.13381 447.75953,41.620642 443.85208,22.883121 454.9292,5.0938957 473.18759,0.7845877 c 4.06031,-0.95830836 12.56667,-0.95233886 16.67199,0.0117118 8.39912,1.9723553 17.31466,8.9593031 21.4173,16.7843215 6.82491,13.017226 4.15809,28.393626 -6.84092,39.443824 -8.51944,8.559067 -19.90075,11.801485 -31.54443,8.98668 z m 18.04338,-4.029147 c 8.98916,-4.115416 14.49404,-14.947 14.57436,-28.677061 0.0913,-15.611558 -8.67478,-27.8983556 -21.44052,-30.0515908 -11.79628,-1.9897191 -21.25534,4.5970737 -25.81822,17.9784438 -1.37759,4.039969 -1.63556,5.834784 -1.64818,11.466195 -0.0128,5.694178 0.22564,7.375516 1.62027,11.427614 3.47383,10.093145 10.24827,17.146791 18.44549,19.205662 3.98416,1.000692 10.47463,0.386868 14.2668,-1.349263 z m 42.62711,3.767511 c -0.50188,-0.812077 -0.60146,-0.741958 2.89229,-2.036491 1.61304,-0.597673 3.40445,-1.808454 4.08059,-2.75799 1.3629,-1.9141 20.12653,-55.4331702 20.17416,-57.5425416 0.0293,-1.2979992 0.26759,-1.3656449 4.8106,-1.3656449 2.62885,0 4.77971,0.087669 4.77971,0.1948204 0,0.7926043 19.63114,54.8885581 20.62757,56.8417351 1.38115,2.707344 4.03404,4.654895 7.14034,5.24194 2.12944,0.402439 2.54789,1.100947 1.01251,1.69014 -1.57733,0.605283 -28.06857,0.422227 -28.45103,-0.196598 -0.52977,-0.857205 0.567,-1.303164 4.61059,-1.874728 3.96752,-0.560813 5.98509,-1.861356 5.98509,-3.858026 0,-1.428614 -6.55338,-20.313581 -7.45052,-21.470346 -0.89132,-1.149207 -18.24321,-1.067668 -19.20419,0.09024 -0.86335,1.040282 -7.33442,20.228554 -7.33442,21.748311 0,1.569549 3.34278,3.377051 7.11781,3.848709 2.00391,0.250373 3.16512,0.669572 3.02467,1.091884 -0.31485,0.946477 -23.23904,1.287785 -23.81577,0.354581 z M 571.23946,32.23256 c 0.35019,-0.912572 -6.60052,-20.171018 -7.28003,-20.171018 -0.60817,0 -7.60546,20.145045 -7.15406,20.596432 0.18887,0.188903 3.44746,0.34346 7.24125,0.34346 5.00705,0 6.97868,-0.210756 7.19284,-0.768874 z" />
    <g id="thick" class="stroke" style="stroke-width:3">
      <rect id="edge" width="900" height="900" />
      <use id="r-3" xlink:href="#r" transform="translate(0,300)" />
      <use id="r-6" xlink:href="#r" transform="translate(0,600)" />
      <use id="c-3" xlink:href="#c" transform="translate(600,0)" />
      <use id="c-6" xlink:href="#c" transform="translate(300,0)" />
    </g>
    <g id="thin" class="stroke" style="stroke-width:1">
      <use id="r-1" xlink:href="#r" transform="translate(0,100)" />
      <use id="r-2" xlink:href="#r" transform="translate(0,200)" />
      <use id="r-4" xlink:href="#r" transform="translate(0,400)" />
      <use id="r-5" xlink:href="#r" transform="translate(0,500)" />
      <use id="r-7" xlink:href="#r" transform="translate(0,700)" />
      <use id="r-8" xlink:href="#r" transform="translate(0,800)" />
      <use id="c-1" xlink:href="#c" transform="translate(100,0)" />
      <use id="c-2" xlink:href="#c" transform="translate(200,0)" />
      <use id="c-4" xlink:href="#c" transform="translate(400,0)" />
      <use id="c-5" xlink:href="#c" transform="translate(500,0)" />
      <use id="c-7" xlink:href="#c" transform="translate(700,0)" />
      <use id="c-8" xlink:href="#c" transform="translate(800,0)" />
    </g>
  </g>
  <g id="clues" inkscape:groupmode="layer">
    <text id="notes" x="0" y="950">
      <tspan x=".25em">• </tspan>
      <tspan x="1em"><tspan class="bold">Normal sudoku</tspan>: Fill every row, column and marked 3×3 box with the </tspan>
      <tspan x="1em" dy="1.5em">digits 1 to 9 once each.</tspan>
      <tspan x=".25em" dy="1.5em">• </tspan>
      <tspan x="1em"><tspan class="bold">River &amp; Riverbank</tspan>: Locate a river (think: classic <tspan class="italic">snake</tspan>) in the grid, </tspan>
      <tspan x="1em" dy="1.5em">consisting of a one-cell wide, non-looping, non-branching string of </tspan>
      <tspan x="1em" dy="1.5em">orthogonally connected cells, which may not touch itself orthogonally </tspan>
      <tspan x="1em" dy="1.5em">(but may diagonally); each border between a river cell and a non-river </tspan>
      <tspan x="1em" dy="1.5em">cell is a riverbank segment (this precludes the grid edge from being </tspan>
      <tspan x="1em" dy="1.5em">counted as riverbank).</tspan>
      <tspan x=".25em" dy="1.5em">• </tspan>
      <tspan x="1em"><tspan class="bold">Riverbank sweeper &amp; sentinel</tspan>: Each circled cell is a riverbank sweeper, </tspan>
      <tspan x="1em" dy="1.5em">which counts riverbank segments within the (up to 3×3) surrounding </tspan>
      <tspan x="1em" dy="1.5em">cells; each squared cell is a riverbank sentinel, which counts riverbank </tspan>
      <tspan x="1em" dy="1.5em">segments in its row and column combined (see example image).</tspan>
      <tspan x=".25em" dy="1.5em">• </tspan>
      <tspan x="1em"><tspan class="bold">No negative constraint</tspan>: Not all circles and squares are necessarily given.</tspan>
    </text>
  </g>
</svg>
