<?xml version="1.0" encoding="UTF-8" standalone="no"?>
<svg
   id="XVXV_3"
   version="1.1"
   width="10in"
   height="15in"
   viewBox="-0.5 -2.5 10 15"
   sodipodi:docname="xvxv_3_full.svg"
   inkscape:export-filename="C:\Users\zhouhuijing\Documents\dev\puzzle\xvxv_3.png"
   inkscape:export-xdpi="48"
   inkscape:export-ydpi="48"
   inkscape:version="1.1.1 (3bf5ae0d25, 2021-09-20)"
   xmlns:inkscape="http://www.inkscape.org/namespaces/inkscape"
   xmlns:sodipodi="http://sodipodi.sourceforge.net/DTD/sodipodi-0.dtd"
   xmlns:xlink="http://www.w3.org/1999/xlink"
   xmlns="http://www.w3.org/2000/svg"
   xmlns:svg="http://www.w3.org/2000/svg">
  <sodipodi:namedview
     id="namedview-0"
     units="pc"
     inkscape:document-units="pc"
     inkscape:pagecheckerboard="1"
     pagecolor="#ffffff"
     bordercolor="#666666"
     borderopacity="1.0"
     inkscape:pageshadow="2"
     inkscape:pageopacity="0.0"
     showgrid="false"
     inkscape:zoom="1"
     inkscape:cx="469.5"
     inkscape:cy="1084.5"
     inkscape:window-width="1920"
     inkscape:window-height="1017"
     inkscape:window-x="-8"
     inkscape:window-y="-8"
     inkscape:window-maximized="1"
     inkscape:current-layer="grid"
     viewbox-y="-2.75" />
  <defs
     id="objects">
    <path
       id="r"
       d="M 0,0 H 9" />
    <path
       id="c"
       d="M 0,0 V 9" />
    <path
       id="b"
       transform="scale(0.08)"
       d="m 0,-2 -0.866,1.5 a 1,1 0 1 0 1.732,0 z" />
    <path
       id="v"
       transform="scale(0.08)"
       d="M -1,-1.5 0,2 1,-1.5 H 0.4 L 0,0 -0.4,-1.5 Z" />
    <path
       id="x"
       transform="scale(0.08)"
       d="M -1,-1.5 -0.3,0 -1,1.5 h 0.6 L 0,0.643 0.4,1.5 H 1 L 0.3,0 1,-1.5 H 0.4 L 0,-0.643 -0.4,-1.5 Z" />
    <rect
       id="vm"
       transform="scale(0.08)"
       x="-1"
       y="-2"
       width="2"
       height="4.5" />
    <rect
       id="xm"
       transform="scale(0.08)"
       x="-1"
       y="-2"
       width="2"
       height="4" />
  </defs>
  <mask
     id="gm">
    <rect
       id="canvas"
       fill="#ffffff"
       x="-3"
       y="-3"
       width="15"
       height="15" />
    <g
       id="gaps"
       fill="#000000">
      <use
         id="xm-r16"
         xlink:href="#xm"
         transform="translate(6,0.5)"
         x="0"
         y="0"
         width="100%"
         height="100%" />
      <use
         id="vm-r17"
         xlink:href="#vm"
         transform="translate(7,0.5)"
         x="0"
         y="0"
         width="100%"
         height="100%" />
      <use
         id="xm-r18"
         xlink:href="#xm"
         transform="translate(8,0.5)"
         x="0"
         y="0"
         width="100%"
         height="100%" />
      <use
         id="vm-c91"
         xlink:href="#vm"
         transform="translate(8.5,1)"
         x="0"
         y="0"
         width="100%"
         height="100%" />
      <use
         id="xm-c12"
         xlink:href="#xm"
         transform="translate(0.5,2)"
         x="0"
         y="0"
         width="100%"
         height="100%" />
      <use
         id="xm-r33"
         xlink:href="#xm"
         transform="translate(3,2.5)"
         x="0"
         y="0"
         width="100%"
         height="100%" />
      <use
         id="xm-c33"
         xlink:href="#xm"
         transform="translate(2.5,3)"
         x="0"
         y="0"
         width="100%"
         height="100%" />
      <use
         id="xm-r42"
         xlink:href="#xm"
         transform="translate(2,3.5)"
         x="0"
         y="0"
         width="100%"
         height="100%" />
      <use
         id="xm-c15"
         xlink:href="#xm"
         transform="translate(0.5,5)"
         x="0"
         y="0"
         width="100%"
         height="100%" />
      <use
         id="xm-r51"
         xlink:href="#xm"
         transform="translate(1,4.5)"
         x="0"
         y="0"
         width="100%"
         height="100%" />
      <use
         id="xm-c25"
         xlink:href="#xm"
         transform="translate(1.5,5)"
         x="0"
         y="0"
         width="100%"
         height="100%" />
      <use
         id="xm-r67"
         xlink:href="#xm"
         transform="translate(7,5.5)"
         x="0"
         y="0"
         width="100%"
         height="100%" />
      <use
         id="vm-r68"
         xlink:href="#vm"
         transform="translate(8,5.5)"
         x="0"
         y="0"
         width="100%"
         height="100%" />
      <use
         id="xm-c96"
         xlink:href="#xm"
         transform="translate(8.5,6)"
         x="0"
         y="0"
         width="100%"
         height="100%" />
      <use
         id="xm-c97"
         xlink:href="#xm"
         transform="translate(8.5,7)"
         x="0"
         y="0"
         width="100%"
         height="100%" />
      <use
         id="xm-c77"
         xlink:href="#xm"
         transform="translate(6.5,7)"
         x="0"
         y="0"
         width="100%"
         height="100%" />
      <use
         id="vm-r87"
         xlink:href="#vm"
         transform="translate(7,7.5)"
         x="0"
         y="0"
         width="100%"
         height="100%" />
      <use
         id="xm-c18"
         xlink:href="#xm"
         transform="translate(0.5,8)"
         x="0"
         y="0"
         width="100%"
         height="100%" />
      <use
         id="xm-r91"
         xlink:href="#xm"
         transform="translate(1,8.5)"
         x="0"
         y="0"
         width="100%"
         height="100%" />
      <use
         id="xm-c28"
         xlink:href="#xm"
         transform="translate(1.5,8)"
         x="0"
         y="0"
         width="100%"
         height="100%" />
    </g>
  </mask>
  <g
     inkscape:groupmode="layer"
     id="layer1"
     inkscape:label="Layer 1"
     style="display:none">
    <rect
       style="display:inline;fill:#ffffff;fill-opacity:1;stroke:none;stroke-width:0.0870225"
       id="rect52166"
       width="10"
       height="12"
       x="-0.5"
       y="-2.5"
       inkscape:export-filename="C:\Users\zhouhuijing\Documents\dev\puzzle\xvxv_3.png"
       inkscape:export-xdpi="48"
       inkscape:export-ydpi="48" />
  </g>
  <g
     id="grid"
     inkscape:groupmode="layer"
     style="display:inline;fill:none;stroke:#000000"
     mask="url(#gm)">
    <g
       id="thick"
       style="stroke-width:0.03">
      <path
         id="edge"
         d="M 0,0 H 9 V 9 H 0 Z" />
      <use
         id="r-3"
         xlink:href="#r"
         transform="translate(0,3)"
         x="0"
         y="0"
         width="100%"
         height="100%" />
      <use
         id="r-6"
         xlink:href="#r"
         transform="translate(0,6)"
         x="0"
         y="0"
         width="100%"
         height="100%" />
      <use
         id="c-3"
         xlink:href="#c"
         transform="translate(6)"
         x="0"
         y="0"
         width="100%"
         height="100%" />
      <use
         id="c-6"
         xlink:href="#c"
         transform="translate(3)"
         x="0"
         y="0"
         width="100%"
         height="100%" />
    </g>
    <g
       id="thin"
       style="stroke-width:0.01">
      <use
         id="r-1"
         xlink:href="#r"
         transform="translate(0,1)"
         x="0"
         y="0"
         width="100%"
         height="100%" />
      <use
         id="r-2"
         xlink:href="#r"
         transform="translate(0,2)"
         x="0"
         y="0"
         width="100%"
         height="100%" />
      <use
         id="r-4"
         xlink:href="#r"
         transform="translate(0,4)"
         x="0"
         y="0"
         width="100%"
         height="100%" />
      <use
         id="r-5"
         xlink:href="#r"
         transform="translate(0,5)"
         x="0"
         y="0"
         width="100%"
         height="100%" />
      <use
         id="r-7"
         xlink:href="#r"
         transform="translate(0,7)"
         x="0"
         y="0"
         width="100%"
         height="100%" />
      <use
         id="r-8"
         xlink:href="#r"
         transform="translate(0,8)"
         x="0"
         y="0"
         width="100%"
         height="100%" />
      <use
         id="c-1"
         xlink:href="#c"
         transform="translate(1)"
         x="0"
         y="0"
         width="100%"
         height="100%" />
      <use
         id="c-2"
         xlink:href="#c"
         transform="translate(2)"
         x="0"
         y="0"
         width="100%"
         height="100%" />
      <use
         id="c-4"
         xlink:href="#c"
         transform="translate(4)"
         x="0"
         y="0"
         width="100%"
         height="100%" />
      <use
         id="c-5"
         xlink:href="#c"
         transform="translate(5)"
         x="0"
         y="0"
         width="100%"
         height="100%" />
      <use
         id="c-7"
         xlink:href="#c"
         transform="translate(7)"
         x="0"
         y="0"
         width="100%"
         height="100%" />
      <use
         id="c-8"
         xlink:href="#c"
         transform="translate(8)"
         x="0"
         y="0"
         width="100%"
         height="100%" />
    </g>
    <text
       xml:space="preserve"
       style="font-style:normal;font-weight:normal;font-size:0.25px;line-height:1.25;font-family:sans-serif;display:inline;fill:#000000;fill-opacity:1;stroke:none;stroke-width:0.0104167"
       x="5.0053267"
       y="-1.1733333"
       id="text43875"><tspan
         sodipodi:role="line"
         id="tspan43873"
         style="font-style:normal;font-variant:normal;font-weight:bold;font-stretch:normal;font-size:0.5px;font-family:Merriweather;-inkscape-font-specification:'Merriweather Bold';text-align:end;text-anchor:end;stroke-width:0.0104167"
         x="5.0053267"
         y="-1.1733333">XVXV <tspan
   style="font-style:normal;font-variant:normal;font-weight:normal;font-stretch:normal;font-family:Merriweather;-inkscape-font-specification:Merriweather"
   id="tspan64033">·</tspan><tspan
   style="font-style:normal;font-variant:normal;font-weight:normal;font-stretch:normal;font-family:Merriweather;-inkscape-font-specification:Merriweather"
   id="tspan59771"> Episode 3</tspan></tspan><tspan
         sodipodi:role="line"
         style="font-style:italic;font-variant:normal;font-weight:normal;font-stretch:normal;font-size:0.25px;font-family:Merriweather;-inkscape-font-specification:'Merriweather Italic';text-align:end;text-anchor:end;stroke-width:0.0104167"
         x="5.0053267"
         y="-0.77528733"
         id="tspan43877">by Henry ‘Pi’ James &amp; Raumplaner</tspan></text>
    <path
       style="display:inline;fill:#ff3333;fill-opacity:1;stroke:none;stroke-width:0.00337462"
       d="m 7.3931287,-2.1496445 c -0.043256,0.00736 -0.082431,0.033267 -0.1072407,0.069301 -0.0097,0.014086 -0.014727,0.044843 -0.028765,0.053901 -0.010147,0.00655 -0.027732,0.00454 -0.039473,0.00785 -0.03136,0.00886 -0.061296,0.024674 -0.082795,0.049747 -0.040687,0.047445 -0.03869,0.1032163 -0.03869,0.1618511 0,0.091574 -0.012328,0.1929398 0.00101,0.283472 0.00364,0.024761 0.028114,0.051068 0.028387,0.074242 3.341e-4,0.02832 -0.027888,0.059532 -0.029271,0.091116 -0.0017,0.038805 0.026926,0.06961 0.0284,0.1046147 0.00102,0.024153 -0.025094,0.054439 -0.027945,0.080992 -0.00744,0.069269 -5.872e-4,0.1429172 -5.872e-4,0.21260417 0,0.12527434 -0.045368,0.37256322 0.1349833,0.39421512 0.018949,0.002278 0.04197,0.002561 0.060742,-9.5844e-4 0.057442,-0.0107618 0.102054,-0.0553448 0.11973,-0.10978466 0.014433,-0.0444545 0.0085,-0.0956819 0.0085,-0.141736 V -1.0679429 c 0,-0.056256 0.00487,-0.1142831 -0.02292,-0.1653587 -0.031596,-0.058061 -0.083153,-0.070666 -0.1424342,-0.081761 -0.016545,-0.0031 -0.033216,-0.01859 -0.03274,-0.036352 4.016e-4,-0.015061 0.012267,-0.029333 0.025995,-0.034617 0.045823,-0.017636 0.085637,-0.011382 0.1242688,-0.050326 0.059824,-0.060299 0.047832,-0.1480567 0.047832,-0.2255255 0,-0.069812 0.00926,-0.1470141 -0.00148,-0.2159787 -0.00577,-0.036997 -0.038902,-0.075654 -0.035271,-0.1113641 0.00263,-0.02592 0.029787,-0.029682 0.035679,-0.050971 0.00756,-0.027306 0.013373,-0.1161337 -0.025924,-0.1094447 m -1.7615305,0.5755005 h -0.00337 l -0.00337,-0.4319574 H 5.5033716 l -0.00337,1.10351131 0.00337,0.23285216 0.00347,0.0857067 0.030277,0.005406 0.091114,-0.006753 -0.00337,-0.17210801 0.00337,-0.31384406 h 0.00337 l 0.049186,0.36446406 0.011996,0.0877417 0.00882,0.0336522 0.03799,0.003472 h 0.091114 c -0.00481,-0.0609941 -0.020106,-0.12188616 -0.030101,-0.18223198 -0.021257,-0.12833187 -0.043836,-0.25640728 -0.06522,-0.38471208 -0.00955,-0.057271 -0.026937,-0.117506 -0.029404,-0.1754828 -0.0033,-0.077472 0.027663,-0.1633236 0.040636,-0.2396012 0.018793,-0.110507 0.041201,-0.2203354 0.060753,-0.3307174 l 0.014059,-0.077618 c 0.00148,-0.00852 0.00754,-0.023778 0.00214,-0.031711 -0.00552,-0.0081 -0.021678,-0.00541 -0.029976,-0.00541 -0.019971,-9.1e-6 -0.081981,-0.010257 -0.092033,0.010624 -0.018524,0.038483 -0.017592,0.099051 -0.024135,0.1412363 -0.014407,0.092898 -0.041724,0.1896968 -0.045812,0.283472 m 0.2395951,0.99215213 h 0.1214849 c 4.05e-5,-0.36332336 0.00279,-0.72650843 0.00337,-1.09001743 1.383e-4,-0.08549 0,-0.1709842 0,-0.2564748 0,-0.020301 0.010073,-0.074875 -0.017059,-0.080221 -0.0199,-0.00392 -0.089987,-0.0098 -0.1050575,0.00581 -0.013738,0.014224 -0.00274,0.06256 -0.00274,0.081164 v 0.2362267 1.10351619 m 0.1788529,0 h 0.199099 v -0.121488 c -0.016782,0 -0.056166,0.007249 -0.068831,-0.005406 -0.013761,-0.0137657 -0.00541,-0.0606124 -0.00541,-0.078957 V -1.007192 -2.0060935 c -0.028002,-3e-6 -0.096948,-0.017568 -0.11945,0.00295 -0.014818,0.013508 -0.00541,0.069147 -0.00541,0.088174 v 0.2564746 1.0765189 m 1.5995507,0 c 0.06681,0.007097 0.1428426,0.008393 0.209224,0 v -0.121488 c -0.01797,0 -0.069783,0.008828 -0.080896,-0.007826 -0.00712,-0.0106707 -0.00347,-0.0305876 -0.00347,-0.0427972 V -0.85533099 -1.2467924 c 0.016029,0 0.052461,0.00682 0.065457,-0.00347 0.00903,-0.00715 0.00541,-0.026971 0.00541,-0.037026 0,-0.033055 0.0057,-0.071999 -7.694e-4,-0.1044156 -0.00635,-0.031803 -0.060418,0.00395 -0.069024,-0.027396 -0.00814,-0.029646 -0.00107,-0.070308 -0.00107,-0.1010406 v -0.212604 c 0,-0.040311 -0.010104,-0.096186 0.00147,-0.1347876 0.00907,-0.03029 0.053932,3.037e-4 0.069307,-0.019108 0.00655,-0.00826 0.00347,-0.025264 0.00347,-0.035085 v -0.084366 c -0.045388,0 -0.09328,0.00435 -0.1383578,-9.635e-4 -0.013326,-0.00157 -0.047159,-0.00827 -0.057273,0.00358 -0.01365,0.016001 -0.00347,0.074545 -0.00347,0.095241 v 0.2699733 1.05627088 M 7.885839,-2.0060991 7.91187,-1.783371 l 0.047244,0.3779626 0.080993,0.6445615 0.034707,0.27334811 h 0.00337 c 0.010485,-0.1328539 0.032292,-0.2660487 0.049667,-0.3982107 C 8.159329,-1.1251017 8.1877,-1.3649663 8.217504,-1.6045137 8.233922,-1.7364564 8.264417,-1.8731635 8.267161,-2.0060991 H 8.1321617 c -0.037283,0.2008157 -0.028397,0.4116446 -0.053993,0.6141888 h -0.00337 L 8.0208005,-2.0061014 H 7.8858172 M 6.492116,-0.58199185 v -0.121488 c -0.016782,0 -0.056166,0.007249 -0.068831,-0.005406 -0.013761,-0.0137656 -0.00541,-0.0606124 -0.00541,-0.078957 V -1.0071965 -2.006098 H 6.330136 l -0.033092,0.00541 -0.00403,0.075581 v 0.2092294 0.79642147 l 0.00337,0.24635066 9.45e-5,0.0886123 0.053899,0.00492 0.1417324,-0.002409 m 0.047244,-1.42410953 v 1.09001751 0.25647475 c 0,0.0154826 -0.00878,0.0748568 0.010623,0.0789571 0.024219,0.005112 0.05918,0.00163 0.083865,-7.6608e-4 0.00823,-7.998e-4 0.021068,0.001387 0.026902,-0.005983 0.013546,-0.0171024 0.00314,-0.0716375 0.00183,-0.0924554 -0.00459,-0.0730275 0.00164,-0.14929873 0.00164,-0.22272807 0,-0.36810531 -0.00337,-0.73572461 -0.00337,-1.10351611 h -0.121478 m 0.1788527,1.42410945 h 0.087739 l 0.033651,-0.005406 3.982e-4,-0.0418354 -3.037e-4,-0.0978656 0.00337,-0.39821085 c 0.012915,0.038154 0.012837,0.081754 0.018307,0.1214881 0.013164,0.095571 0.024165,0.19132336 0.03763,0.28684675 0.00513,0.0364535 7.12e-4,0.0944974 0.017433,0.12716423 0.00946,0.0184763 0.0799,0.007087 0.098734,0.008109 0.00947,5.1632e-4 0.022272,0.003918 0.025924,-0.007826 0.00913,-0.0293566 0.00107,-0.0730781 0.00107,-0.10383175 V -0.91945853 -1.6686347 -1.9183601 c 0,-0.017203 0.00895,-0.072899 -0.00541,-0.084273 -0.016654,-0.01319 -0.071578,-0.00361 -0.092453,-0.00346 -0.00996,6.85e-5 -0.022458,-0.00105 -0.025924,0.010621 -0.00524,0.017661 -0.00107,0.041898 -0.00107,0.060244 v 0.131612 0.425208 c 0,0.054092 0.00677,0.1026001 0.01225,0.1552347 0.00128,0.012293 -0.00679,0.03236 -0.022239,0.03017 -0.014433,-0.00205 -0.019728,-0.021547 -0.017416,-0.033544 0.010286,-0.053387 0.013907,-0.1000382 0.013907,-0.1552347 0,-0.1584035 -0.018266,-0.308971 -0.040057,-0.465704 -0.00532,-0.03823 -0.011463,-0.076463 -0.01635,-0.1147386 -0.00147,-0.011511 7.221e-4,-0.032458 -0.0097,-0.040402 -0.017315,-0.013201 -0.071102,-0.00351 -0.092501,-0.00347 -0.00918,1.88e-5 -0.02287,-0.00202 -0.027868,0.00783 -0.00954,0.018788 8.706e-4,0.061784 8.706e-4,0.083294 0,0.068533 -0.00337,0.1371195 -0.00337,0.2058546 0,0.3757928 0.00333,0.75154527 0.00337,1.12713889 M 8.3042714,-2.006098 v 1.42410949 l 0.1417323,3.0038e-4 0.050525,-0.002885 0.00347,-0.0345333 v -0.0843663 H 8.4291347 V -1.2467943 l 0.062082,-0.00347 0.00541,-0.040402 v -0.1147388 c -0.015193,0 -0.057804,0.00742 -0.066584,-0.00783 -0.00537,-0.00931 -9.584e-4,-0.025695 -9.112e-4,-0.036049 1.451e-4,-0.030372 3.4e-6,-0.060744 3.4e-6,-0.091116 0,-0.1131761 -0.00537,-0.2278372 0,-0.3408413 h 0.070866 V -2.0061043 H 8.3042652 m -1.0528655,0.1060002 c 0.040849,-0.00821 0.043866,0.038472 0.043866,0.066111 v 0.242976 c 0,0.026795 0.00572,0.070726 -0.030374,0.076834 -0.041173,0.00697 -0.043866,-0.03433 -0.043866,-0.063336 v -0.2396012 c 0,-0.028644 -0.00769,-0.075331 0.030374,-0.082984 m 0.00337,0.708968 c 0.050345,-0.00597 0.040492,0.070173 0.040492,0.09957 v 0.30709474 c 0,0.0317053 0.011045,0.0914228 -0.033746,0.0970922 -0.052633,0.006661 -0.040495,-0.0690224 -0.040495,-0.10046754 v -0.3070956 c 0,-0.031091 -0.010906,-0.0909 0.03375,-0.096195 z"
       id="path49803" />
    <text
       xml:space="preserve"
       style="font-style:normal;font-weight:normal;font-size:0.249999px;line-height:1.25;font-family:sans-serif;display:inline;fill:#000000;fill-opacity:1;stroke:none;stroke-width:0.0104168"
       x="0"
       y="9.7883806"
       id="text68297"><tspan
         sodipodi:role="line"
         id="tspan68295"
         style="font-style:normal;font-variant:normal;font-weight:normal;font-stretch:normal;font-size:0.249999px;font-family:Merriweather;-inkscape-font-specification:Merriweather;stroke-width:0.0104168"
         x="0"
         y="9.7883806">• <tspan
   style="font-style:normal;font-variant:normal;font-weight:bold;font-stretch:normal;font-family:Merriweather;-inkscape-font-specification:'Merriweather Bold';stroke-width:0.0104167"
   id="tspan100639">Normal sudoku: </tspan>Fill every row, coloumn and marked 3×3 box </tspan><tspan
         sodipodi:role="line"
         style="font-style:normal;font-variant:normal;font-weight:normal;font-stretch:normal;font-size:0.249999px;font-family:Merriweather;-inkscape-font-specification:Merriweather;stroke-width:0.0104168"
         x="0"
         y="10.106642"
         id="tspan95673">      with the digits 1 to 9 once each.</tspan><tspan
         sodipodi:role="line"
         style="font-style:normal;font-variant:normal;font-weight:normal;font-stretch:normal;font-size:0.249999px;font-family:Merriweather;-inkscape-font-specification:Merriweather;stroke-width:0.0104168"
         x="0"
         y="10.424903"
         id="tspan77659">• <tspan
   style="font-style:normal;font-variant:normal;font-weight:bold;font-stretch:normal;font-family:Merriweather;-inkscape-font-specification:'Merriweather Bold';stroke-width:0.0104167"
   id="tspan102831">Classic Kropki: </tspan>Cells connected by a black dot have a ratio of 1:2.</tspan><tspan
         sodipodi:role="line"
         style="font-style:normal;font-variant:normal;font-weight:normal;font-stretch:normal;font-size:0.249999px;font-family:Merriweather;-inkscape-font-specification:Merriweather;stroke-width:0.0104168"
         x="0"
         y="10.743165"
         id="tspan77661">• <tspan
   style="font-style:normal;font-variant:normal;font-weight:bold;font-stretch:normal;font-family:Merriweather;-inkscape-font-specification:'Merriweather Bold';stroke-width:0.0104167"
   id="tspan104633">XVXV: </tspan>Cells connected by a V sum to either 5 or 15; </tspan><tspan
         sodipodi:role="line"
         style="font-style:normal;font-variant:normal;font-weight:normal;font-stretch:normal;font-size:0.249999px;font-family:Merriweather;-inkscape-font-specification:Merriweather;stroke-width:0.0104168"
         x="0"
         y="11.061426"
         id="tspan98399">      cells connected by a X sum to either 10 or 15.</tspan><tspan
         sodipodi:role="line"
         style="font-style:normal;font-variant:normal;font-weight:normal;font-stretch:normal;font-size:0.249999px;font-family:Merriweather;-inkscape-font-specification:Merriweather;stroke-width:0.0104168"
         x="0"
         y="11.379687"
         id="tspan77663">• <tspan
   style="font-style:normal;font-variant:normal;font-weight:bold;font-stretch:normal;font-family:Merriweather;-inkscape-font-specification:'Merriweather Bold';stroke-width:0.0104167"
   id="tspan107281">No negative constraint: </tspan>Not all possible X, V and dots are </tspan><tspan
         sodipodi:role="line"
         style="font-style:normal;font-variant:normal;font-weight:normal;font-stretch:normal;font-size:0.249999px;font-family:Merriweather;-inkscape-font-specification:Merriweather;stroke-width:0.0104168"
         x="0"
         y="11.697948"
         id="tspan129993">      neccessarily given.</tspan></text>
  </g>
  <g
     id="clues"
     inkscape:groupmode="layer"
     style="display:inline;fill:#000000;stroke:none">
    <g
       id="dots">
      <use
         id="b-c53"
         xlink:href="#b"
         transform="translate(4.5,3)"
         x="0"
         y="0"
         width="100%"
         height="100%" />
      <use
         id="b-c56"
         xlink:href="#b"
         transform="translate(4.5,6)"
         x="0"
         y="0"
         width="100%"
         height="100%" />
      <use
         id="b-c57"
         xlink:href="#b"
         transform="translate(4.5,7)"
         x="0"
         y="0"
         width="100%"
         height="100%" />
      <use
         id="b-c58"
         xlink:href="#b"
         transform="translate(4.5,8)"
         x="0"
         y="0"
         width="100%"
         height="100%" />
    </g>
    <g
       id="xv">
      <use
         id="x-r16"
         xlink:href="#x"
         transform="translate(6,0.5)"
         x="0"
         y="0"
         width="100%"
         height="100%" />
      <use
         id="v-r17"
         xlink:href="#v"
         transform="translate(7,0.5)"
         x="0"
         y="0"
         width="100%"
         height="100%" />
      <use
         id="x-r18"
         xlink:href="#x"
         transform="translate(8,0.5)"
         x="0"
         y="0"
         width="100%"
         height="100%" />
      <use
         id="v-c91"
         xlink:href="#v"
         transform="translate(8.5,1)"
         x="0"
         y="0"
         width="100%"
         height="100%" />
      <use
         id="x-c12"
         xlink:href="#x"
         transform="translate(0.5,2)"
         x="0"
         y="0"
         width="100%"
         height="100%" />
      <use
         id="x-r33"
         xlink:href="#x"
         transform="translate(3,2.5)"
         x="0"
         y="0"
         width="100%"
         height="100%" />
      <use
         id="x-c33"
         xlink:href="#x"
         transform="translate(2.5,3)"
         x="0"
         y="0"
         width="100%"
         height="100%" />
      <use
         id="x-r42"
         xlink:href="#x"
         transform="translate(2,3.5)"
         x="0"
         y="0"
         width="100%"
         height="100%" />
      <use
         id="x-c15"
         xlink:href="#x"
         transform="translate(0.5,5)"
         x="0"
         y="0"
         width="100%"
         height="100%" />
      <use
         id="x-r51"
         xlink:href="#x"
         transform="translate(1,4.5)"
         x="0"
         y="0"
         width="100%"
         height="100%" />
      <use
         id="x-c25"
         xlink:href="#x"
         transform="translate(1.5,5)"
         x="0"
         y="0"
         width="100%"
         height="100%" />
      <use
         id="x-r67"
         xlink:href="#x"
         transform="translate(7,5.5)"
         x="0"
         y="0"
         width="100%"
         height="100%" />
      <use
         id="v-r68"
         xlink:href="#v"
         transform="translate(8,5.5)"
         x="0"
         y="0"
         width="100%"
         height="100%" />
      <use
         id="x-c96"
         xlink:href="#x"
         transform="translate(8.5,6)"
         x="0"
         y="0"
         width="100%"
         height="100%" />
      <use
         id="x-c97"
         xlink:href="#x"
         transform="translate(8.5,7)"
         x="0"
         y="0"
         width="100%"
         height="100%" />
      <use
         id="x-c77"
         xlink:href="#x"
         transform="translate(6.5,7)"
         x="0"
         y="0"
         width="100%"
         height="100%" />
      <use
         id="v-r87"
         xlink:href="#v"
         transform="translate(7,7.5)"
         x="0"
         y="0"
         width="100%"
         height="100%" />
      <use
         id="x-c18"
         xlink:href="#x"
         transform="translate(0.5,8)"
         x="0"
         y="0"
         width="100%"
         height="100%" />
      <use
         id="x-r91"
         xlink:href="#x"
         transform="translate(1,8.5)"
         x="0"
         y="0"
         width="100%"
         height="100%" />
      <use
         id="x-c28"
         xlink:href="#x"
         transform="translate(1.5,8)"
         x="0"
         y="0"
         width="100%"
         height="100%" />
    </g>
  </g>
</svg>
